# xmcd
#
# Track frame offsets:
#	150
#	16435
#	32942
#	45346
#	59777
#	75502
#	87736
#	103952
#	114818
#	132431
#	144351
#	157045
#
# Disc length: 2265 seconds
#
# Revision: 1
# Processed by: cddbd v1.5.2PL0 Copyright (c) Steve Scherf et al.
# Submitted via: audiograbber 1.83.01
#
DISCID=a308d70c
DTITLE=Caledonia - We are country
DYEAR=1900
DGENRE=Country
TTITLE0=Cotton Fields
TTITLE1=City cowboys don't drive wild horses
TTITLE2=Should've asked her faster
TTITLE3=I've been waiting
TTITLE4=Young Country
TTITLE5=Bible Belt
TTITLE6=The devil went down to Georgia
TTITLE7=Nobody's Girl
TTITLE8=V8-Blues
TTITLE9=Ruby, don't take your love to town
TTITLE10=Not a country girl at all
TTITLE11=Thanks a lot
EXTD=
EXTT0=
EXTT1=
EXTT2=
EXTT3=
EXTT4=
EXTT5=
EXTT6=
EXTT7=
EXTT8=
EXTT9=
EXTT10=
EXTT11=
PLAYORDER=
